<?xml version="1.0" encoding="utf-8"?><!DOCTYPE svg PUBLIC "-//W3C//DTD SVG 1.1//EN" "http://www.w3.org/Graphics/SVG/1.1/DTD/svg11.dtd"><svg xmlns="http://www.w3.org/2000/svg" xmlns:xlink="http://www.w3.org/1999/xlink" version="1.1" id="Calque_1" x="0px" y="0px" width="200px" height="77.945px" viewBox="0 0 200 77.945" xml:space="preserve"><g><path fill="#071C2C" d="M21.05,44.934c2.157,0,2.817-0.797,2.817-2.836c0-1.984-0.66-2.79-2.817-2.79h-4.535   c-1.003,0-1.348,0.349-1.348,1.352v4.274H21.05z M10,55.389V38.392c0-2.181,1.177-3.102,3.042-3.102h10.679   c4.48,0,5.428,2.785,5.428,6.808c0,4.015-0.948,6.859-5.428,6.859h-8.554v6.432H10z"/><path fill="#071C2C" d="M37.213,55.389c-1.864,0-3.041-0.895-3.041-3.074V35.291h5.167v14.726c0,1.002,0.344,1.351,1.346,1.351   h10.34v4.022H37.213z"/><path fill="#071C2C" d="M72.04,39.194H61.704c-1.002,0-1.351,0.347-1.351,1.356v2.78h11.426v3.729H60.353v3.074   c0,1.003,0.349,1.351,1.351,1.351H72.15v3.904H58.228c-1.866,0-3.043-0.895-3.043-3.074V38.392c0-2.181,1.177-3.102,3.043-3.102   H72.04V39.194z"/><rect x="77.318" y="35.291" fill="#071C2C" width="5.167" height="20.098"/><path fill="#071C2C" d="M108.811,52.402c0,1.407-0.743,3.216-3.675,3.216c-1.375,0-2.758-0.229-3.816-1.841L93.48,41.98   c-0.201-0.317-0.399-0.49-0.54-0.49c-0.12,0-0.348,0.032-0.348,0.576v13.323H88.23V38.218c0-2.182,1.635-3.156,3.79-3.156   c1.46,0,2.812,0.37,3.701,1.723l7.898,11.911c0.142,0.205,0.251,0.49,0.514,0.49c0.316,0,0.316-0.35,0.316-0.49V35.291h4.361   V52.402z"/><path fill="#071C2C" d="M123.341,51.367h11.134c1.383,0,1.438-0.894,1.438-1.375c0-0.697-0.314-1.265-1.549-1.635L126.493,46   c-2.607-0.774-3.381-2.789-3.381-5.624c0-3.02,1.318-5.086,4.646-5.086h12.405v4.018h-10.399c-0.774,0-1.406,0.29-1.406,1.319   c0,0.774,0.381,1.329,1.612,1.7l7.065,2.062c2.985,0.837,4.153,2.354,4.153,5.658c0,3.184-1.168,5.342-4.59,5.342h-13.258V51.367z"/><path fill="#071C2C" d="M159.768,47.463V35.291h5.169v12.434c0,6.029-3.479,7.894-9.356,7.894c-5.888,0-9.364-1.864-9.364-7.894   V35.291h5.168v12.173c0,2.867,1.319,4.132,4.196,4.132C158.447,51.595,159.768,50.331,159.768,47.463"/><path fill="#071C2C" d="M175.846,49.928c0,1.122,0.318,1.438,1.432,1.438h1.177c4.599,0,6.259-1.146,6.259-6.029   c0-4.874-1.66-6.029-6.259-6.029h-1.177c-1.113,0-1.432,0.319-1.432,1.438V49.928z M173.721,55.389   c-1.863,0-3.043-0.895-3.043-3.074V38.392c0-2.181,1.18-3.102,3.043-3.102h8.068c6.718,0,8.211,4.192,8.211,10.047   c0,5.855-1.493,10.052-7.959,10.052H173.721z"/><path fill="#009BDE" d="M78.352,68.679c-0.81,0.388-1.783,0.631-3.051,0.631c-2.608,0-4.427-1.753-4.427-4.272   c0-2.598,1.898-4.233,4.392-4.233c1.278,0,2.421,0.409,3.076,1.019l-0.994,1.073c-0.417-0.456-1.202-0.824-2.071-0.824   c-1.704,0-2.813,1.296-2.813,2.966c0,1.725,1.098,2.978,2.882,2.978c0.606,0,1.143-0.09,1.609-0.283v-2.058h-1.699v-1.193h3.095   V68.679z"/><path fill="#009BDE" d="M85.004,64.496c0.81,0,1.734-0.192,1.734-1.177c0-0.88-0.864-1.094-1.609-1.094h-1.303v2.271H85.004z    M82.387,61.013h2.812c1.52,0,2.981,0.601,2.981,2.32c0,1.162-0.72,1.933-1.848,2.182l2.156,3.586h-1.734l-1.876-3.427h-1.05v3.427   h-1.44V61.013z"/><path fill="#009BDE" d="M95.816,68.014c1.659,0,2.788-1.253,2.788-2.986c0-1.659-1.108-2.955-2.788-2.955   c-1.669,0-2.777,1.296-2.777,2.955C93.039,66.761,94.172,68.014,95.816,68.014 M95.806,60.804c2.524,0,4.368,1.635,4.368,4.224   c0,2.529-1.844,4.283-4.368,4.283c-2.494,0-4.333-1.754-4.333-4.283C91.474,62.439,93.312,60.804,95.806,60.804"/><path fill="#009BDE" d="M110.3,66.13c0,1.953-1.406,3.18-3.255,3.18c-1.858,0-3.264-1.227-3.264-3.18v-5.117h1.44v5.063   c0,0.934,0.438,1.938,1.823,1.938c1.378,0,1.814-1.005,1.814-1.938v-5.063h1.44V66.13z"/><path fill="#009BDE" d="M116.738,64.546c0.944,0,1.803-0.229,1.803-1.192s-0.858-1.129-1.753-1.129h-1.053v2.321H116.738z    M114.305,61.013h2.637c1.849,0,3.047,0.65,3.047,2.341c0,1.778-1.426,2.395-3.146,2.395h-1.107v3.353h-1.431V61.013z"/><polygon fill="#009BDE" points="123.556,61.013 128.917,61.013 128.917,62.265 124.995,62.265 124.995,64.323 128.708,64.323    128.708,65.536 124.995,65.536 124.995,67.821 129.126,67.821 129.126,69.101 123.556,69.101  "/><path fill="#009BDE" d="M126.91,18.618l0.69,2.291l0.556-0.552l0.369,0.37c0.07,0.069,0.159,0.104,0.247,0.104   c0.089,0,0.179-0.035,0.247-0.104c0.139-0.133,0.139-0.358,0-0.494l-0.37-0.369l0.549-0.552L126.91,18.618z"/><path fill="#009BDE" d="M74.566,19.082c0.331,0,0.596,0.265,0.596,0.592c0,0.332-0.265,0.596-0.596,0.596   c-0.327,0-0.592-0.264-0.592-0.596C73.974,19.347,74.239,19.082,74.566,19.082 M74.566,17.709c0.331,0,0.596,0.265,0.596,0.591   c0,0.333-0.265,0.598-0.596,0.598c-0.327,0-0.592-0.265-0.592-0.598C73.974,17.975,74.239,17.709,74.566,17.709 M74.566,16.332   c0.331,0,0.596,0.27,0.596,0.598c0,0.326-0.265,0.591-0.596,0.591c-0.327,0-0.592-0.265-0.592-0.591   C73.974,16.602,74.239,16.332,74.566,16.332 M74.047,11.938c0-0.108,0.089-0.195,0.201-0.195h3.602   c0.107,0,0.196,0.087,0.196,0.195v3.631c0,0.111-0.088,0.2-0.196,0.2h-3.602c-0.112,0-0.201-0.089-0.201-0.2V11.938z    M77.527,17.521c-0.327,0-0.592-0.265-0.592-0.591c0-0.328,0.265-0.598,0.592-0.598c0.331,0,0.596,0.27,0.596,0.598   C78.124,17.256,77.858,17.521,77.527,17.521 M77.527,18.898c-0.327,0-0.592-0.265-0.592-0.598c0-0.326,0.265-0.591,0.592-0.591   c0.331,0,0.596,0.265,0.596,0.591C78.124,18.633,77.858,18.898,77.527,18.898 M77.527,20.27c-0.327,0-0.592-0.264-0.592-0.596   c0-0.327,0.265-0.592,0.592-0.592c0.331,0,0.596,0.265,0.596,0.592C78.124,20.006,77.858,20.27,77.527,20.27 M76.049,17.521   c-0.332,0-0.597-0.265-0.597-0.591c0-0.328,0.266-0.598,0.597-0.598c0.326,0,0.596,0.27,0.596,0.598   C76.646,17.256,76.375,17.521,76.049,17.521 M76.049,18.898c-0.332,0-0.597-0.265-0.597-0.598c0-0.326,0.266-0.591,0.597-0.591   c0.326,0,0.596,0.265,0.596,0.591C76.646,18.633,76.375,18.898,76.049,18.898 M76.049,20.27c-0.332,0-0.597-0.264-0.597-0.596   c0-0.327,0.266-0.592,0.597-0.592c0.326,0,0.596,0.265,0.596,0.592C76.646,20.006,76.375,20.27,76.049,20.27 M74.566,24.53h2.961   c0.817,0,1.482-0.666,1.482-1.482V12c0-0.817-0.665-1.478-1.482-1.478h-2.961c-0.817,0-1.479,0.661-1.479,1.478v11.048   C73.088,23.865,73.75,24.53,74.566,24.53"/><path fill="#009BDE" d="M117.806,22.176c-0.191,0-0.349-0.158-0.349-0.351v-7.597c0-0.192,0.157-0.351,0.349-0.351h13.889   c0.194,0,0.352,0.159,0.352,0.351v7.597c0,0.193-0.157,0.351-0.352,0.351H117.806z M99.479,15.278   c-0.878-0.037-1.719-0.17-2.479-0.396c0.565-1.564,1.461-2.68,2.479-2.971V15.278z M99.479,18.221H96.37   c0.036-0.825,0.15-1.61,0.333-2.337c0.855,0.253,1.794,0.404,2.777,0.446V18.221z M99.479,21.323   c-0.966,0.038-1.889,0.187-2.74,0.432c-0.202-0.765-0.333-1.603-0.369-2.488h3.109V21.323z M99.479,25.577   c-0.983-0.282-1.851-1.336-2.422-2.819c0.753-0.212,1.572-0.345,2.422-0.387V25.577z M94.867,23.748   c0.353-0.246,0.758-0.465,1.204-0.656c0.361,0.954,0.835,1.754,1.396,2.355C96.477,25.075,95.595,24.49,94.867,23.748    M92.853,19.268h2.488c0.037,1.01,0.178,1.961,0.412,2.829c-0.578,0.237-1.105,0.519-1.561,0.846   C93.434,21.895,92.951,20.637,92.853,19.268 M94.12,14.645c0.465,0.35,0.995,0.649,1.591,0.896c-0.21,0.826-0.334,1.726-0.37,2.681   h-2.488C92.95,16.896,93.401,15.673,94.12,14.645 M97.467,12.041c-0.588,0.634-1.082,1.486-1.448,2.498   c-0.459-0.2-0.877-0.437-1.239-0.704C95.524,13.046,96.44,12.429,97.467,12.041 M82.657,21.569c0.486,0,0.882,0.396,0.882,0.886   c0,0.486-0.396,0.882-0.882,0.882c-0.49,0-0.886-0.396-0.886-0.882C81.771,21.965,82.167,21.569,82.657,21.569 M100.526,22.37   c0.854,0.037,1.67,0.168,2.413,0.384c-0.564,1.48-1.433,2.541-2.413,2.822V22.37z M100.526,19.268h3.098   c-0.035,0.886-0.161,1.723-0.358,2.489c-0.855-0.241-1.778-0.39-2.74-0.433V19.268z M100.526,16.33   c0.978-0.042,1.916-0.193,2.776-0.446c0.178,0.728,0.287,1.512,0.322,2.337h-3.098V16.33z M100.526,11.912   c1.013,0.291,1.904,1.407,2.478,2.971c-0.768,0.226-1.604,0.359-2.478,0.396V11.912z M105.219,13.834   c-0.365,0.267-0.775,0.503-1.243,0.703c-0.358-1.01-0.851-1.863-1.443-2.497C103.565,12.429,104.479,13.046,105.219,13.834    M105.875,14.645c0.72,1.028,1.176,2.251,1.276,3.576h-2.493c-0.036-0.955-0.159-1.854-0.37-2.681   C104.885,15.294,105.415,14.994,105.875,14.645 M105.803,22.948c-0.456-0.331-0.982-0.613-1.553-0.85   c0.229-0.864,0.371-1.819,0.408-2.83h2.493C107.049,20.638,106.56,21.896,105.803,22.948 M102.532,25.447   c0.562-0.601,1.037-1.407,1.402-2.357c0.44,0.187,0.845,0.411,1.197,0.66C104.398,24.495,103.517,25.075,102.532,25.447    M138.656,29.085h-12.433c-0.156-0.447-0.508-0.799-0.961-0.957v-1.195h9.175c0.821,0,1.208-0.449,0.862-0.997   c-0.67-1.131-1.344-2.256-2.021-3.382c0.104-0.221,0.17-0.466,0.17-0.729v-7.597c0-0.966-0.787-1.748-1.754-1.748h-13.889   c-0.965,0-1.743,0.782-1.743,1.748v7.597c0,0.262,0.057,0.508,0.161,0.729c-0.671,1.126-1.351,2.251-2.021,3.382   c-0.336,0.547,0.051,0.997,0.862,0.997h9.155v1.195c-0.452,0.158-0.803,0.51-0.961,0.957h-21.776   c-0.162-0.447-0.509-0.799-0.957-0.957V26.94c4.289-0.273,7.699-3.839,7.699-8.194c0-4.535-3.69-8.225-8.225-8.225   c-4.534,0-8.225,3.69-8.225,8.225c0,4.354,3.41,7.92,7.704,8.194v1.188c-0.453,0.158-0.799,0.51-0.958,0.957H77.528   c-0.159-0.447-0.511-0.799-0.954-0.957v-1.16h6.523c0.817,0,1.479-0.661,1.479-1.478v-3.296c0-0.818-0.661-1.477-1.479-1.477   h-3.331v2.329c0,1.237-1.003,2.241-2.239,2.241h-2.958c-1.237,0-2.241-1.004-2.241-2.241v-2.329h-3.425   c-0.774,0.045-1.388,0.692-1.388,1.477v3.296c0,0.817,0.665,1.478,1.482,1.478h6.523v1.16c-0.447,0.158-0.793,0.51-0.951,0.957   H61.339c-0.286,0-0.522,0.236-0.522,0.525c0,0.29,0.236,0.521,0.522,0.521h13.231c0.213,0.613,0.792,1.054,1.478,1.054   c0.686,0,1.265-0.44,1.48-1.054h20.993c0.214,0.613,0.792,1.054,1.478,1.054c0.686,0,1.264-0.44,1.483-1.054h21.776   c0.223,0.613,0.802,1.054,1.487,1.054s1.255-0.44,1.478-1.054h12.433c0.294,0,0.525-0.231,0.525-0.521   C139.182,29.322,138.95,29.085,138.656,29.085"/><path fill="#009BDE" d="M132.554,11.61c1.163,0,2.108,0.943,2.108,2.109c0,0.275,0.229,0.503,0.507,0.503   c0.272,0,0.501-0.228,0.501-0.503c0-1.722-1.396-3.125-3.116-3.125c-0.28,0-0.508,0.227-0.508,0.507   C132.046,11.383,132.273,11.61,132.554,11.61"/><path fill="#009BDE" d="M132.956,9.646c2.021,0,3.672,1.649,3.672,3.671c0,0.281,0.219,0.508,0.499,0.508s0.508-0.228,0.508-0.508   c0-2.583-2.097-4.683-4.679-4.683c-0.281,0-0.508,0.228-0.508,0.508S132.675,9.646,132.956,9.646"/></g></svg>